<svg xmlns="http://www.w3.org/2000/svg" width="500" height="131" fill="none"><path fill="#BC9B6A" d="m385.665 19.851-16.228 41.462a9.743 9.743 0 0 0-.895 3.436c0 1.789 1.293 2.974 4.062 4.048h-20.953a10.037 10.037 0 0 0 4.107-2.298 10.033 10.033 0 0 0 2.603-3.92L385.665.903l27.314 61.68a10.062 10.062 0 0 0 2.603 3.918 10.066 10.066 0 0 0 4.106 2.3h-20.934c2.769-1.073 4.062-2.259 4.062-4.048a9.18 9.18 0 0 0-.895-3.435L385.665 19.85ZM37.436 7.617c-15.419 0-25.358 10.776-25.358 27.067 0 16.493 9.55 27.287 25.166 27.287A26.71 26.71 0 0 0 58.66 51.94l-1.19 13.657a67.427 67.427 0 0 1-22.016 3.923C13.46 69.531 0 54.178 0 35.194 0 15.414 14.833 1.1 35.36 1.1c5.814.21 11.612.734 17.37 1.57A3.93 3.93 0 0 0 56.47.5v15.8s-4.684-8.683-19.034-8.683ZM118.513 62.092c-12.118 0-21.472-11.94-21.472-27.43 0-15.33 9.47-26.562 22.295-26.562 13.044 0 21.543 10.543 21.543 26.862 0 15.893-9.318 27.125-22.33 27.125l-.036.005Zm.447-61.015c-19.575 0-33.012 13.737-33.012 33.688a33.295 33.295 0 0 0 20.013 32.002 33.308 33.308 0 0 0 12.999 2.75c18.649 0 32.86-15.016 32.86-34.752 0-19.955-13.419-33.688-32.86-33.688ZM231.689 49.079V13.535c0-7.094-.693-8.27-5.73-9.944h19.548c-4.554 2.17-4.867 2.975-4.867 10.092V70.13l-50.31-47.863v36.917c0 6.423.783 7.604 6.217 9.608H175.6c4.025-1.462 5.582-3.185 5.582-9.514V1.019l50.507 48.06ZM319.668 19.668a15.255 15.255 0 0 1-11.787 15.777l12.699 15.374a84.502 84.502 0 0 0 17.151 17.946H323.6l-27.806-34.152c6.71-1.396 12.928-5.422 12.928-13.16a11.415 11.415 0 0 0-12.319-11.107 23.633 23.633 0 0 0-6.24.796v43.792c0 4.554.044 12.078 6.101 13.867l-1.659-.022h-18.13l-1.593.022c6.379-1.79 5.918-9.394 5.918-13.867V17.717c0-4.553.783-12.247-4.92-13.92h23.184c8.674 0 20.604 3.243 20.604 15.87ZM462.935 61.192h-4.858c-4.026 0-5.421-1.579-5.421-6.226v-44.79h9.393a24.723 24.723 0 0 1 19.128 7.23 24.724 24.724 0 0 1 7.148 19.161c0 15.294-10.472 24.603-25.372 24.603l-.018.022ZM500 36.317c0-21.972-16.435-32.547-37.852-32.547h-24.563c5.561 1.96 5.816 3.377 5.816 9.698v45.841c0 6.343-1.432 8.03-5.816 9.492h21.024c25.453 0 41.373-11.59 41.373-32.466M64.74 116.239c.08 0 .161-.044.161-.205v-.6c0-4.348 0-5.144-.058-6.079-.058-.935-.277-1.409-1.22-1.615a5.153 5.153 0 0 0-1.11-.067c-.322 0-.497-.067-.497-.264s.206-.264.613-.264c1.534 0 3.346.094 4.115.094.68 0 2.492-.094 3.61-.094.38 0 .6.059.6.264 0 .206-.175.264-.506.264a4.935 4.935 0 0 0-.84.067c-.761.139-.994.622-1.038 1.615-.045.993-.081 1.731-.081 6.079v5.05c-.05 2.04.005 4.081.161 6.115.08.819.264 1.441 1.11 1.548.481.064.967.098 1.453.103.336 0 .447.103.447.255 0 .152-.219.277-.577.277-1.856 0-3.668-.094-4.473-.094-.657 0-2.469.094-3.578.094-.391 0-.588-.092-.59-.277 0-.152.115-.255.473-.255.342.003.682-.031 1.016-.103.577-.094.716-.725.84-1.579.14-1.19.14-3.449.14-6.079v-2.536a.158.158 0 0 0-.047-.116.141.141 0 0 0-.053-.034.148.148 0 0 0-.062-.011H53.817c-.103 0-.184.022-.184.161v2.536c0 2.639 0 4.889.14 6.115.102.818.263 1.44 1.13 1.547.486.064.974.098 1.464.103.322 0 .447.103.447.255 0 .152-.22.278-.564.278-1.847 0-3.668-.094-4.473-.094-.644 0-2.447.094-3.578.094-.38 0-.578-.094-.578-.278 0-.183.126-.255.448-.255.348.003.696-.031 1.038-.103.586-.093.715-.724.818-1.579a59.91 59.91 0 0 0 .161-6.079v-5.059c0-4.348 0-5.144-.058-6.079-.058-.935-.286-1.409-1.243-1.615a5.232 5.232 0 0 0-1.132-.067c-.3 0-.447-.067-.447-.264s.196-.264.599-.264c1.548 0 3.346.094 4.115.094.68 0 2.505-.094 3.623-.094.38 0 .6.059.6.264 0 .206-.175.264-.519.264a5.146 5.146 0 0 0-.84.067c-.775.139-1.003.622-1.052 1.615-.05.993-.067 1.731-.067 6.079v.6c0 .152.08.205.183.205H64.74ZM91.772 127.753c-5.489 0-8.776-4.719-8.776-10.682 0-7.157 3.77-8.946 7.045-8.946 4.692 0 8.396 3.981 8.396 10.391 0 8.28-4.648 9.251-6.665 9.251v-.014Zm-.895-21.01a11.233 11.233 0 0 0-8.22 3.058 11.242 11.242 0 0 0 7.943 19.411 11.34 11.34 0 0 0 11.845-11.765 10.387 10.387 0 0 0-11.585-10.709M116.419 108.742l-4.245.103c-1.673.067-2.366.206-2.778.855-.207.31-.377.643-.505.993-.045.232-.126.344-.313.344-.188 0-.255-.139-.255-.447 0-.448.554-3.055.599-3.288.067-.38.174-.555.335-.555.393.16.803.276 1.222.345.832.08 1.914.138 2.858.138h11.348c.66-.005 1.319-.051 1.973-.138.254-.067.513-.113.774-.139.206 0 .233.161.233.599 0 .613-.081 2.586-.081 3.324-.036.3-.094.447-.277.447-.184 0-.278-.138-.286-.563l-.045-.322c-.045-.738-.832-1.548-3.377-1.602l-3.579-.08v11.769c0 2.639 0 4.889.139 6.115.094.818.264 1.44 1.118 1.547.485.064.973.098 1.463.103.313 0 .447.103.447.255 0 .152-.206.278-.532.278-1.892 0-3.691-.094-4.474-.094-.657 0-2.455.094-3.578.094-.394 0-.599-.094-.599-.278 0-.183.138-.255.474-.255.344.003.687-.032 1.024-.103.577-.094.752-.724.832-1.579.139-1.19.139-3.449.139-6.079v-11.764l-.054-.023ZM139.246 115.443c0-4.348 0-5.144-.045-6.079-.045-.935-.3-1.409-1.243-1.615a5.18 5.18 0 0 0-1.119-.067c-.313 0-.496-.067-.496-.264s.197-.264.635-.264c.774 0 1.592.023 2.308.023.716 0 1.409.058 1.789.058.895 0 6.607 0 7.158-.023.55-.022 1.002-.116 1.234-.161.144-.058.294-.1.447-.125.139 0 .184.125.184.255a17.818 17.818 0 0 0-.233 1.87c-.022.286-.08 1.548-.152 1.879-.022.152-.08.335-.277.335s-.264-.152-.264-.402a3.14 3.14 0 0 0-.175-1.025c-.183-.532-.496-.894-1.914-1.051-.474-.045-3.494-.103-4.084-.103-.139 0-.183.094-.183.286v7.256c0 .183.022.322.183.322.657 0 3.954 0 4.603-.067.497.024.985-.136 1.373-.447.183-.206.3-.358.447-.358.148 0 .197.044.197.219 0 .174-.116.644-.232 2.075-.036.577-.126 1.732-.126 1.937 0 .206 0 .542-.255.542a.244.244 0 0 1-.104-.009.249.249 0 0 1-.09-.054.232.232 0 0 1-.07-.192 5.25 5.25 0 0 0-.125-1.052c-.138-.577-.541-1.002-1.592-1.109-.541-.08-3.369-.094-4.071-.094-.138 0-.161.125-.161.277v2.259c0 .971-.036 3.579 0 4.429.045 1.973.506 2.411 3.427 2.411a6.951 6.951 0 0 0 2.684-.358c.751-.335 1.095-.935 1.292-2.12.067-.3.126-.448.322-.448.197 0 .233.242.233.533a21.642 21.642 0 0 1-.38 3.158c-.184.76-.448.76-1.535.76-2.156 0-3.735-.067-4.96-.094-1.226-.026-2.121-.094-2.988-.094-.314 0-.944 0-1.638.045-.693.045-1.395.045-1.959.045-.38 0-.586-.094-.586-.277 0-.184.116-.255.474-.255.344.002.688-.032 1.025-.103.577-.094.715-.725.832-1.579.152-1.19.152-3.449.152-6.079v-5.006h.058ZM167.204 120.484c0 3.669 0 5.641.612 6.16.475.447 1.235.613 3.458.613 1.534 0 2.63-.022 3.355-.796.404-.491.66-1.087.738-1.718.022-.255.081-.416.313-.416.233 0 .233.125.233.483a22.739 22.739 0 0 1-.447 3.297c-.162.622-.314.774-1.79.774-2.066 0-3.551-.067-4.831-.094-1.279-.027-2.317-.094-3.507-.094-.313 0-.935 0-1.615.045-.68.044-1.418.044-1.972.044-.381 0-.577-.094-.577-.277 0-.183.116-.255.447-.255a4.7 4.7 0 0 0 1.038-.103c.563-.094.715-.725.832-1.579.152-1.19.152-3.449.152-6.079v-5.046c0-4.348 0-5.144-.067-6.079-.067-.935-.264-1.409-1.235-1.615a3.733 3.733 0 0 0-.944-.067c-.313 0-.483-.067-.483-.264s.197-.264.622-.264c1.342 0 3.158.094 3.923.094.765 0 2.791-.094 3.923-.094.394 0 .599.059.599.264 0 .206-.174.264-.532.264a7.61 7.61 0 0 0-1.109.067c-.774.139-1.016.622-1.074 1.615-.058.993-.045 1.731-.045 6.079v5.041h-.017ZM185.669 128.433c-.474-.206-.555-.335-.555-.957 0-1.593.117-3.31.152-3.749.036-.438.117-.76.345-.76.228 0 .264.255.264.483.024.498.117.99.277 1.463a3.946 3.946 0 0 0 4.084 2.894 3.466 3.466 0 0 0 2.616-.811 3.471 3.471 0 0 0 1.213-2.455c0-1.395-.447-2.733-2.813-4.58l-1.316-1.038a8.476 8.476 0 0 1-4.222-6.795c0-3.131 2.63-5.399 6.598-5.399a14.88 14.88 0 0 1 3.815.483c.242.067.394.161.394.345 0 .38-.125 1.19-.125 3.435 0 .613-.081.864-.313.864-.233 0-.287-.175-.287-.519a3.427 3.427 0 0 0-.738-1.879 3.616 3.616 0 0 0-3.104-1.409c-2.156 0-3.413 1.221-3.413 2.939 0 1.315.657 2.308 3.024 4.128l.796.6c3.471 2.594 4.692 4.58 4.692 7.3a5.782 5.782 0 0 1-2.684 4.983 8.218 8.218 0 0 1-4.567 1.19 9.72 9.72 0 0 1-4.142-.774M230.973 127.404a5.557 5.557 0 0 1-5.174-3.687 5.553 5.553 0 0 1-.314-2.217 5.106 5.106 0 0 1 1.973-4.335c.483.703 2.308 2.769 3.055 3.579.747.809 3.507 3.484 5.157 4.92a7.47 7.47 0 0 1-4.692 1.754l-.005-.014Zm15.241.855a8.104 8.104 0 0 1-3.069-.993 28.075 28.075 0 0 1-3.981-2.814 11.353 11.353 0 0 0 2.827-6.781c0-.322-.447-.497-.98-.564a30.805 30.805 0 0 0-3.435-.183c-.233 0-.474.044-.474.277 0 .152.183.219.344.219a2.145 2.145 0 0 1 1.409.448 1.664 1.664 0 0 1 .541 1.315 8.765 8.765 0 0 1-1.373 4.428c-.532-.496-4.07-3.668-5.063-4.8-2.259-2.549-4.729-4.822-4.729-7.532a3.056 3.056 0 0 1 .168-1.233c.141-.395.362-.757.648-1.062a3.022 3.022 0 0 1 2.24-.957 3.913 3.913 0 0 1 3.184 1.279c.555.683.85 1.54.832 2.42 0 .416.036.541.197.541s.287-.067.345-.483c.166-1.217.271-2.441.313-3.668 0-.344 0-.577-.483-.752a9.883 9.883 0 0 0-3.471-.612c-4.97 0-6.979 2.997-6.965 5.269a6.378 6.378 0 0 0 1.476 4.071 8.375 8.375 0 0 0-4.67 6.781c0 2.492 1.834 6.343 7.958 6.343a9.131 9.131 0 0 0 6.795-2.63 8.54 8.54 0 0 0 6.759 2.201h2.191c.622 0 .864-.094.864-.242 0-.255-.143-.286-.398-.286ZM277.857 118.029a2.945 2.945 0 0 1-2.031.483 7.653 7.653 0 0 1-2.17-.286c-.219-.094-.264-.184-.264-.519v-8.696c0-.242.059-.345.264-.403a5.176 5.176 0 0 1 1.499-.125 4.586 4.586 0 0 1 4.258 3.337c.176.621.219 1.272.126 1.91a4.99 4.99 0 0 1-1.682 4.299Zm11.509 10.221a7.31 7.31 0 0 1-.796-.058 5.68 5.68 0 0 1-3.194-1.95c-1.709-1.79-3.681-4.335-6.227-7.52a8.045 8.045 0 0 0 3.785-6.414 4.916 4.916 0 0 0-1.951-3.923 9.016 9.016 0 0 0-5.26-1.244c-.895 0-3.069.094-4.048.094-.613 0-2.398-.094-3.923-.094-.448 0-.636.058-.636.264 0 .206.162.264.497.264.374-.012.748.011 1.118.067.944.206 1.177.657 1.221 1.615.045.957.059 1.731.059 6.079v5.05c0 2.639 0 4.889-.139 6.079-.116.854-.255 1.476-.841 1.579-.337.071-.68.106-1.024.103-.345 0-.448.103-.448.255 0 .152.197.277.555.277 1.163 0 2.952-.094 3.507-.094.447 0 2.527.094 4.2.094.381 0 .577-.094.577-.277 0-.183-.116-.255-.358-.255a12.533 12.533 0 0 1-1.395-.103c-.855-.094-1.038-.725-1.118-1.579-.139-1.19-.139-3.449-.139-6.115v-.402c0-.175.08-.242.233-.242l2.491.058a.6.6 0 0 1 .506.206c.393.403 1.708 2.353 2.849 3.932a13.7 13.7 0 0 0 3.91 4.2c.963.455 2.03.642 3.09.542h2.725c.335 0 .532-.045.532-.278 0-.116-.103-.219-.344-.219M297.928 115.443c0-4.348 0-5.144-.045-6.079-.045-.935-.286-1.409-1.243-1.615a5.157 5.157 0 0 0-1.11-.067c-.335 0-.505-.067-.505-.264s.219-.264.635-.264c.774 0 1.601.023 2.317.023.716 0 1.409.058 1.789.058.922 0 6.634 0 7.157-.023a8.05 8.05 0 0 0 1.235-.161 1.88 1.88 0 0 1 .447-.125c.152 0 .184.125.184.255 0 .219-.139.555-.233 1.87a18.183 18.183 0 0 1-.152 1.879c0 .152-.058.335-.264.335-.206 0-.255-.152-.255-.402a2.938 2.938 0 0 0-.183-1.025c-.184-.532-.483-.894-1.901-1.051-.497-.045-3.507-.103-4.071-.103-.161 0-.206.094-.206.286v7.256c0 .183.023.322.206.322.613 0 3.91 0 4.567-.067.5.025.992-.134 1.382-.447.206-.206.314-.358.448-.358a.194.194 0 0 1 .206.219c0 .174-.117.644-.242 2.075-.036.577-.125 1.732-.125 1.937 0 .206 0 .542-.264.542-.197 0-.242-.117-.242-.255-.036-.287-.036-.68-.103-1.052-.152-.577-.563-1.002-1.601-1.109-.555-.08-3.391-.094-4.071-.094-.138 0-.161.125-.161.277v2.259c0 .971-.035 3.579 0 4.429.045 1.973.519 2.411 3.449 2.411a7.006 7.006 0 0 0 2.684-.358c.752-.335 1.083-.935 1.279-2.12.072-.3.103-.448.3-.448s.242.242.242.533a25.386 25.386 0 0 1-.367 3.158c-.197.76-.447.76-1.548.76-2.156 0-3.726-.067-4.961-.094-1.234-.026-2.098-.094-2.965-.094-.313 0-.944 0-1.629.045-.684.045-1.418.045-1.972.045-.381 0-.577-.094-.577-.277 0-.184.116-.255.447-.255.348.003.696-.031 1.038-.103.577-.094.715-.725.841-1.579.125-1.19.125-3.449.125-6.079v-5.006h.018ZM320.75 128.433c-.474-.205-.554-.335-.554-.957 0-1.592.125-3.31.138-3.748.014-.439.117-.761.358-.761.242 0 .287.255.287.483.021.496.102.987.241 1.463a3.964 3.964 0 0 0 4.093 2.894 3.491 3.491 0 0 0 2.62-.81 3.487 3.487 0 0 0 1.223-2.455c0-1.396-.416-2.734-2.814-4.581l-1.315-1.038a8.502 8.502 0 0 1-4.232-6.794c0-3.132 2.639-5.4 6.607-5.4a14.471 14.471 0 0 1 3.807.483c.264.068.402.162.402.345 0 .38-.103 1.19-.103 3.435 0 .613-.102.864-.322.864-.219 0-.286-.175-.286-.519a3.475 3.475 0 0 0-.725-1.879 3.652 3.652 0 0 0-3.131-1.409 2.994 2.994 0 0 0-1.259.096 2.995 2.995 0 0 0-1.872 1.611c-.18.386-.276.806-.282 1.232 0 1.315.644 2.308 3.033 4.129l.783.599c3.471 2.594 4.719 4.581 4.719 7.3a5.765 5.765 0 0 1-2.684 4.983 8.183 8.183 0 0 1-4.554 1.19 9.662 9.662 0 0 1-4.164-.774M354.894 127.753c-5.502 0-8.79-4.719-8.79-10.682 0-7.157 3.749-8.946 7.045-8.946 4.684 0 8.383 3.981 8.383 10.391-.022 8.28-4.661 9.251-6.643 9.251l.005-.014Zm-.939-21.01a11.24 11.24 0 0 0-10.799 6.713 11.243 11.243 0 0 0-.944 4.373 11.22 11.22 0 0 0 3.315 8.119 11.247 11.247 0 0 0 8.141 3.264 11.352 11.352 0 0 0 8.517-3.276 11.37 11.37 0 0 0 2.563-3.893c.573-1.462.841-3.027.779-4.596a10.307 10.307 0 0 0-.788-4.369 10.365 10.365 0 0 0-6.365-5.891 10.392 10.392 0 0 0-4.419-.444ZM407.723 108.742l-4.268.103c-1.65.067-2.353.206-2.778.855a3.92 3.92 0 0 0-.483.993c-.044.232-.138.344-.313.344-.174 0-.241-.139-.241-.447 0-.448.532-3.055.59-3.288.081-.38.161-.555.345-.555.398.16.809.275 1.234.345.819.08 1.915.138 2.859.138h11.339c.662-.005 1.32-.051 1.973-.138.255-.065.514-.111.774-.139.196 0 .232.161.232.599 0 .613-.094 2.586-.094 3.324-.022.3-.067.447-.241.447-.242 0-.287-.138-.322-.563l-.023-.322c-.058-.738-.841-1.548-3.377-1.602l-3.623-.08v11.769a60.57 60.57 0 0 0 .161 6.115c.08.818.255 1.44 1.109 1.547.483.065.975.099 1.463.103.3 0 .447.103.447.255 0 .152-.232.278-.541.278-1.892 0-3.69-.094-4.5-.094-.658 0-2.456.094-3.579.094-.38 0-.563-.094-.563-.278 0-.183.116-.255.447-.255.34.003.68-.031 1.015-.103.578-.094.752-.724.833-1.579.152-1.19.152-3.449.152-6.079l-.027-11.787ZM428.97 128.433c-.447-.206-.554-.335-.554-.957 0-1.592.125-3.31.152-3.749.027-.438.125-.76.358-.76.232 0 .277.255.277.483.027.496.112.987.255 1.463a3.969 3.969 0 0 0 4.093 2.894 3.49 3.49 0 0 0 3.851-3.265c0-1.396-.447-2.734-2.813-4.581l-1.342-1.038a8.556 8.556 0 0 1-2.97-2.868 8.555 8.555 0 0 1-1.275-3.927c0-3.131 2.652-5.399 6.62-5.399a14.789 14.789 0 0 1 3.816.483c.255.068.393.161.393.345 0 .38-.116 1.19-.116 3.435 0 .613-.081.864-.313.864-.233 0-.286-.175-.286-.519a3.378 3.378 0 0 0-.752-1.879 3.548 3.548 0 0 0-1.387-1.104 3.552 3.552 0 0 0-1.744-.305 3.035 3.035 0 0 0-1.257.101 3.043 3.043 0 0 0-1.87 1.61 3.067 3.067 0 0 0-.286 1.228c0 1.315.671 2.308 3.033 4.129l.796.599c3.471 2.594 4.706 4.581 4.706 7.3a5.785 5.785 0 0 1-.694 2.842 5.771 5.771 0 0 1-1.99 2.141 8.188 8.188 0 0 1-4.532 1.19 9.729 9.729 0 0 1-4.187-.774M384.949 118.029a2.93 2.93 0 0 1-2.03.483 7.547 7.547 0 0 1-2.17-.286c-.206-.094-.264-.184-.264-.519v-8.696c0-.242.058-.345.264-.403a5.277 5.277 0 0 1 1.512-.125c.644.022 1.279.18 1.856.463a4.565 4.565 0 0 1 1.508 1.181 4.582 4.582 0 0 1 1.02 3.603 5.1 5.1 0 0 1-.336 2.354 5.066 5.066 0 0 1-1.36 1.945Zm11.51 10.221a7.76 7.76 0 0 1-.805-.058 5.777 5.777 0 0 1-3.208-1.95c-1.695-1.79-3.654-4.335-6.204-7.52a8.051 8.051 0 0 0 3.771-6.414c0-.76-.174-1.51-.514-2.191a4.948 4.948 0 0 0-1.436-1.732 9.069 9.069 0 0 0-5.27-1.244c-.894 0-3.055.094-4.026.094-.621 0-2.411-.094-3.932-.094-.447 0-.621.058-.621.264 0 .206.174.264.474.264.38-.013.756.01 1.132.067.943.206 1.176.657 1.234 1.615.058.957.058 1.731.058 6.079v5.05c0 2.639 0 4.889-.125 6.079-.125.854-.264 1.476-.841 1.579-.335.072-.68.107-1.024.103-.345 0-.448.103-.448.255 0 .152.197.277.564.277 1.154 0 2.939-.094 3.494-.094.447 0 2.549.094 4.209.094.38 0 .577-.094.577-.277 0-.183-.125-.255-.344-.255-.47-.009-.94-.043-1.41-.103-.854-.094-1.024-.725-1.109-1.579-.139-1.19-.139-3.449-.139-6.115v-.402c0-.175.081-.242.233-.242l2.492.058a.66.66 0 0 1 .519.206c.371.403 1.672 2.353 2.827 3.932a13.388 13.388 0 0 0 3.923 4.2 5.778 5.778 0 0 0 3.055.542h2.733c.344 0 .555-.045.555-.278 0-.116-.139-.219-.358-.219M449.86 108.246h2.192v7.125h1.109v-7.125h2.259v-1.06h-5.56v1.06ZM464.067 107.186l-2.975 4.025-3.069-4.025h-.957v8.19h1.109v-6.245c.041.067.085.129.139.184l2.559 3.368h.474l2.559-3.449c.044-.065.085-.134.116-.206a1.74 1.74 0 0 0-.045.336v6.007h1.141v-8.185h-1.051Z"/></svg>