<svg xmlns="http://www.w3.org/2000/svg" id="mainlogoka_svg__Layer_1" data-name="Layer 1" viewBox="0 0 607.98 185.37"><defs><style>.mainlogoka_svg__cls-1{fill:#0045e0}</style></defs><path d="M306.06 82.13h-12.51a17.87 17.87 0 0 1-17.86-17.87V19.6a1.8 1.8 0 0 1 .52-1.27 1.78 1.78 0 0 1 1.26-.52h7.15a1.78 1.78 0 0 1 1.26.52 1.8 1.8 0 0 1 .52 1.27v44.66a7.17 7.17 0 0 0 7.15 7.15h12.51a7.15 7.15 0 0 0 7.14-7.15V51.8A1.81 1.81 0 0 1 315 50h7.14a1.79 1.79 0 0 1 1.79 1.79v12.47a17.87 17.87 0 0 1-17.86 17.87ZM370.37 17.81h-33.94a1.78 1.78 0 0 0-1.79 1.79v7.14a1.78 1.78 0 0 0 1.79 1.79h17v19.65a1.78 1.78 0 0 0 .52 1.26 1.8 1.8 0 0 0 1.27.52h7.14a1.78 1.78 0 0 0 1.26-.52 1.75 1.75 0 0 0 .53-1.26V28.53h6.25a7.15 7.15 0 0 1 7.15 7.15v28.58a7.17 7.17 0 0 1-7.15 7.15h-17.89a7.15 7.15 0 0 1-7.15-7.15v-4.47a1.78 1.78 0 0 0-.52-1.26 1.8 1.8 0 0 0-1.27-.52h-7.14a1.8 1.8 0 0 0-1.27.52 1.78 1.78 0 0 0-.52 1.26v4.47a17.87 17.87 0 0 0 17.87 17.87h17.86a17.89 17.89 0 0 0 17.87-17.87V35.68a17.87 17.87 0 0 0-17.87-17.87M531.16 17.81h-33.95a17.86 17.86 0 0 0-17.86 17.87v28.58a17.87 17.87 0 0 0 17.86 17.87h7.15a17.87 17.87 0 0 0 17.86-17.87V28.53h8.94a7.14 7.14 0 0 1 7.14 7.15v44.65a1.81 1.81 0 0 0 1.79 1.79h7.15a1.75 1.75 0 0 0 1.26-.53 1.78 1.78 0 0 0 .52-1.26V35.68a17.86 17.86 0 0 0-17.86-17.87m-19.65 46.45a7.17 7.17 0 0 1-7.15 7.15h-7.15a7.15 7.15 0 0 1-7.14-7.15V35.68a7.14 7.14 0 0 1 7.14-7.15h14.3zM468.63 33.89a16.08 16.08 0 0 0-16.08-16.08h-35.73A17.86 17.86 0 0 0 399 35.68v7.14a17.86 17.86 0 0 0 17.86 17.87H424a17.86 17.86 0 0 0 17.86-17.87V28.53h10.72a5.36 5.36 0 0 1 5.36 5.36v3.62a7.14 7.14 0 0 1-7.15 7.14h-3.57v10.72h3.57a7.15 7.15 0 0 1 7.15 7.15v3.53a5.36 5.36 0 0 1-5.36 5.36h-41.12a1.78 1.78 0 0 0-1.26.52 1.75 1.75 0 0 0-.53 1.26v7.15a1.81 1.81 0 0 0 1.79 1.79h41.09a16.08 16.08 0 0 0 16.08-16.08v-3.53A17.83 17.83 0 0 0 463.52 50a17.78 17.78 0 0 0 5.11-12.5zm-37.52 8.93A7.14 7.14 0 0 1 424 50h-7.15a7.15 7.15 0 0 1-7.15-7.15v-7.17a7.15 7.15 0 0 1 7.15-7.15h14.29v14.29ZM590.11 82.12h-12.5a17.87 17.87 0 0 1-17.87-17.87v-4.46a1.75 1.75 0 0 1 .53-1.26 1.78 1.78 0 0 1 1.26-.52h7.14a1.8 1.8 0 0 1 1.27.52 1.78 1.78 0 0 1 .52 1.26v4.46a7.15 7.15 0 0 0 7.15 7.15h12.5a7.15 7.15 0 0 0 7.15-7.15V52a7.14 7.14 0 0 0-3.73-6.27l-10.08-5.5-10.08-5.5a10.71 10.71 0 0 1-5.59-9.41V19.6a1.79 1.79 0 0 1 1.79-1.79h7.14a1.79 1.79 0 0 1 1.79 1.79v5.75l10.2 5.56 10.2 5.57a17.41 17.41 0 0 1 9.1 15.29v12.48a17.89 17.89 0 0 1-17.87 17.87ZM306.06 167.87h-12.51A17.86 17.86 0 0 1 275.69 150v-44.66a1.78 1.78 0 0 1 .52-1.26 1.75 1.75 0 0 1 1.26-.53h7.15a1.75 1.75 0 0 1 1.26.53 1.78 1.78 0 0 1 .52 1.26V150a7.15 7.15 0 0 0 7.15 7.15h12.51a7.14 7.14 0 0 0 7.14-7.15v-12.46a1.75 1.75 0 0 1 .53-1.26 1.78 1.78 0 0 1 1.26-.52h7.14a1.8 1.8 0 0 1 1.27.52 1.78 1.78 0 0 1 .52 1.26V150a17.86 17.86 0 0 1-17.86 17.87M365 167.86h-12.5A17.86 17.86 0 0 1 334.64 150v-4.45a1.78 1.78 0 0 1 1.79-1.79h7.14a1.78 1.78 0 0 1 1.79 1.79V150a7.14 7.14 0 0 0 7.15 7.15H365a7.15 7.15 0 0 0 7.15-7.15v-12.22a7.14 7.14 0 0 0-3.73-6.28l-10.07-5.5-10.08-5.5a10.71 10.71 0 0 1-5.59-9.41v-5.75a1.79 1.79 0 0 1 1.79-1.79h7.14a1.79 1.79 0 0 1 1.79 1.79v5.75l10.2 5.57 10.2 5.56a17.41 17.41 0 0 1 9.08 15.29V150A17.87 17.87 0 0 1 365 167.86M497.21 167.86h-7.14a1.78 1.78 0 0 1-1.79-1.79v-5.62L477 158.84l-11.28-1.61a17.51 17.51 0 0 1-15-17.24v-18.57a17.89 17.89 0 0 1 17.87-17.87h12.5A17.87 17.87 0 0 1 499 121.42v12.5a1.78 1.78 0 0 1-.52 1.26 1.8 1.8 0 0 1-1.27.52h-7.14a1.8 1.8 0 0 1-1.27-.52 1.78 1.78 0 0 1-.52-1.26v-12.5a7.15 7.15 0 0 0-7.15-7.15h-12.5a7.17 7.17 0 0 0-7.15 7.15V140a6.74 6.74 0 0 0 5.76 6.63l11.28 1.61 11.27 1.61a10.76 10.76 0 0 1 9.21 10.6v5.62a1.78 1.78 0 0 1-1.79 1.79M556.17 167.86H549a1.78 1.78 0 0 1-1.26-.52 1.8 1.8 0 0 1-.52-1.27v-44.65a7.17 7.17 0 0 0-7.15-7.15h-12.49a7.15 7.15 0 0 0-7.14 7.15v44.65a1.78 1.78 0 0 1-1.79 1.79h-7.14a1.78 1.78 0 0 1-1.79-1.79v-44.65a17.87 17.87 0 0 1 17.86-17.87h12.51A17.89 17.89 0 0 1 558 121.42v44.65a1.79 1.79 0 0 1-1.79 1.79ZM441.83 145.56V150A17.86 17.86 0 0 1 424 167.87h-12.54A17.86 17.86 0 0 1 393.6 150v-44.66a1.78 1.78 0 0 1 .52-1.26 1.75 1.75 0 0 1 1.26-.53h7.15a1.75 1.75 0 0 1 1.26.53 1.78 1.78 0 0 1 .52 1.26v22.34H424a17.87 17.87 0 0 1 17.85 17.87ZM424 138.41h-19.69V150a7.15 7.15 0 0 0 7.15 7.15H424a7.14 7.14 0 0 0 7.14-7.15v-4.44a7.15 7.15 0 0 0-7.14-7.15" class="mainlogoka_svg__cls-1"></path><path d="M132 0C90 0 57 14.57 34.47 35S0 81.54 0 104.81c0 27 10.72 45.75 26.8 57.76s37.51 17.27 59 17.27c31 0 52.41-9.67 66.1-21.05s19.66-24.49 19.66-31.35v-2.38c-1 5.06-6.2 16.08-18.07 25.83S123 169.12 95.28 169.12c-25.18 0-43.05-7.74-54.62-19.65s-16.84-28-16.84-44.66c0-20.65 11.18-42.38 30.4-59s46.46-28 78.58-28c20.92 0 40.57 6.22 55 17.9s23.6 28.91 23.6 50.78c0 28.22-11.59 50.06-25.79 66.14a140.9 140.9 0 0 1-41.46 31.61.57.57 0 0 0-.28.76.58.58 0 0 0 .73.34c11.3-3.67 31.6-13.22 49.07-30.26s32.12-41.6 32.12-75.28c0-20.41-9.71-40.36-26.29-55.2S159.47 0 132 0" style="fill: rgb(44, 186, 32);"></path><path d="M184.9 96.68 178.2 90l-6.69-6.69V54.79a2.39 2.39 0 0 0-2.39-2.39h-14.29a2.39 2.39 0 0 0-2.38 2.39v9.44l-14.57-14.57-14.57-14.57a6 6 0 0 0-8.42 0l-30.8 30.79-30.79 30.8a4.76 4.76 0 0 0 3.37 8.13h10v60.27a94.6 94.6 0 0 0 28.58 4c27.74 0 46.29-8.48 58.16-18.23s17.06-20.77 18.07-25.83v-20.21h10a4.76 4.76 0 0 0 3.37-8.13Zm-89.62 3.41a.28.28 0 0 1-.28-.22A19.18 19.18 0 0 0 81.17 86a.29.29 0 0 1 0-.57A19.18 19.18 0 0 0 95 71.64a.28.28 0 0 1 .28-.23.3.3 0 0 1 .29.23 19.15 19.15 0 0 0 13.82 13.83.28.28 0 0 1 .23.28.29.29 0 0 1-.23.29 19.15 19.15 0 0 0-13.82 13.83.29.29 0 0 1-.29.22m21.44 34.49v7.15a1.15 1.15 0 0 1-.35.84 1.17 1.17 0 0 1-.84.35h-14.29a1.18 1.18 0 0 1-1.19-1.19v-14.29a1.18 1.18 0 0 1 1.19-1.19h14.29a1.17 1.17 0 0 1 .84.35 1.15 1.15 0 0 1 .35.84Zm0-21.43v7.14a1.15 1.15 0 0 1-.35.84 1.17 1.17 0 0 1-.84.35h-14.29a1.18 1.18 0 0 1-1.19-1.19V106a1.18 1.18 0 0 1 1.19-1.19h14.29a1.17 1.17 0 0 1 .84.35 1.15 1.15 0 0 1 .35.84Zm21.44 21.43v7.15a1.2 1.2 0 0 1-.35.84 1.17 1.17 0 0 1-.84.35h-14.3a1.2 1.2 0 0 1-1.19-1.19v-14.29a1.2 1.2 0 0 1 1.19-1.19H137a1.17 1.17 0 0 1 .84.35 1.2 1.2 0 0 1 .35.84Zm0-21.43v7.14a1.2 1.2 0 0 1-.35.84 1.17 1.17 0 0 1-.84.35h-14.3a1.2 1.2 0 0 1-1.19-1.19V106a1.2 1.2 0 0 1 1.19-1.19H137a1.17 1.17 0 0 1 .84.35 1.2 1.2 0 0 1 .35.84Z" class="mainlogoka_svg__cls-1"></path></svg>