<svg width="234" height="189" viewBox="0 0 234 189" fill="none" xmlns="http://www.w3.org/2000/svg">
<path d="M109.234 67.42C111.064 67.42 112.564 67.66 112.564 68.8C112.564 69.28 112.234 69.88 111.994 70.27C111.634 70.78 111.484 72.58 111.364 74.26C111.274 75.61 109.264 75.28 108.844 74.77C108.304 74.17 106.954 74.29 106.774 74.35C106.174 74.53 105.424 74.68 104.404 74.68C99.9041 74.68 96.2441 71.32 96.2441 67.15C96.2441 63.01 99.9041 59.62 104.404 59.62C107.194 59.62 109.714 60.88 111.154 62.86C113.764 66.49 105.544 68.59 106.144 63.67C106.324 62.2 105.184 60.76 104.014 61.09C102.244 61.6 101.794 65.17 102.274 67.63C102.754 70.24 104.464 73.09 105.874 73.09C106.714 73.09 106.654 71.08 106.114 70.27C105.874 69.88 105.514 69.28 105.514 68.8C105.514 67.66 107.014 67.42 108.784 67.42H109.234ZM138.538 71.74C138.538 73 139.918 72.88 139.798 73.63C139.678 74.53 137.938 74.68 136.768 74.68C135.598 74.68 133.018 74.2 133.018 71.74V70.84C133.018 69.79 132.658 69.13 131.968 69.13H130.708C130.798 70.45 130.978 71.26 131.308 71.68C131.668 72.1 132.058 72.76 132.058 73.3C132.058 74.47 130.378 74.68 128.548 74.68H128.278C126.448 74.68 124.768 74.47 124.768 73.3C124.768 72.76 125.158 72.1 125.488 71.68C126.568 70.39 126.208 63.67 125.368 62.47C125.098 62.11 124.768 61.48 124.768 61C124.768 59.86 126.448 59.62 128.278 59.62H132.418C135.688 59.62 138.388 61.84 138.388 64.39C138.388 65.89 137.458 67.27 136.018 68.14C137.488 68.47 138.538 69.34 138.538 71.5V71.74ZM131.818 60.79C130.198 60.79 130.198 67.96 131.818 67.96C132.988 67.96 134.098 65.98 134.098 64.39C134.098 62.77 133.048 60.79 131.818 60.79ZM160.191 59.62C164.691 59.62 168.351 63.01 168.351 67.15C168.351 71.32 164.691 74.68 160.191 74.68C155.691 74.68 152.031 71.32 152.031 67.15C152.031 63.01 155.691 59.62 160.191 59.62ZM161.391 73.15C162.891 72.85 163.551 69.91 162.891 66.61C162.231 63.31 160.461 60.88 158.991 61.18C157.491 61.48 156.831 64.42 157.491 67.72C158.151 70.99 159.921 73.45 161.391 73.15ZM196.825 71.68C197.125 72.13 197.695 72.64 197.575 73.42C197.425 74.32 196.045 74.68 194.665 74.68C193.165 74.68 191.575 74.14 191.485 72.97C190.855 73.9 189.475 74.68 187.375 74.68C180.955 74.68 181.285 68.11 181.375 65.35C181.405 64 180.985 62.89 180.685 62.47C180.415 62.11 180.115 61.57 180.115 60.85C180.115 59.86 182.005 59.62 183.205 59.62H183.865C185.695 59.62 187.375 59.86 187.375 61C187.375 61.48 187.015 62.08 186.805 62.47C185.245 65.38 186.775 73.06 188.905 73.06C191.695 73.06 192.145 64.54 190.855 62.47C190.615 62.08 190.285 61.48 190.285 61C190.285 60.01 191.545 59.71 193.105 59.65H193.135C193.315 59.65 193.495 59.62 193.675 59.62H194.035C195.895 59.62 197.575 59.86 197.575 61C197.575 61.48 197.185 62.08 196.975 62.47C196.135 64.15 195.565 69.73 196.825 71.68ZM217.519 59.62C220.789 59.62 223.489 61.84 223.489 64.39C223.489 66.94 220.789 69.13 217.519 69.13H215.809C215.899 70.45 216.079 71.26 216.409 71.68C216.769 72.1 217.159 72.76 217.159 73.3C217.159 74.47 215.479 74.68 213.649 74.68H213.379C211.549 74.68 209.869 74.47 209.869 73.3C209.869 72.76 210.259 72.1 210.589 71.68C211.669 70.39 211.309 63.67 210.469 62.47C210.199 62.11 209.869 61.48 209.869 61C209.869 59.86 211.549 59.62 213.379 59.62H217.519ZM216.919 67.96C218.089 67.96 219.199 65.98 219.199 64.39C219.199 62.77 218.149 60.79 216.919 60.79C215.299 60.79 215.299 67.96 216.919 67.96Z" fill="#032685"/>
<path d="M58.3564 108.12C57.3164 109 55.9564 109.72 54.2764 110.28C52.6764 110.76 50.7964 111 48.6364 111C45.7564 111 43.3564 110.64 41.4364 109.92C39.5964 109.2 38.3964 107.96 37.8364 106.2C35.5964 99.16 33.7564 93.48 32.3164 89.16C30.8764 84.76 29.7564 80.92 28.9564 77.64H28.3564C28.1164 82.36 27.9164 86.68 27.7564 90.6C27.6764 94.44 27.5964 98.2 27.5164 101.88C27.5164 105.56 27.4364 109.28 27.2764 113.04C27.1964 116.8 27.0364 120.96 26.7964 125.52C25.7564 125.92 24.3964 126.24 22.7164 126.48C21.0364 126.8 19.3564 126.96 17.6764 126.96C14.1564 126.96 11.3964 126.4 9.39637 125.28C7.47637 124.16 6.51637 122.12 6.51637 119.16L9.99637 57.96C10.6364 56.92 12.0364 55.8 14.1964 54.6C16.3564 53.4 19.3964 52.8 23.3164 52.8C27.5564 52.8 30.8764 53.48 33.2764 54.84C35.6764 56.12 37.4364 58.24 38.5564 61.2C39.2764 63.12 40.0364 65.32 40.8364 67.8C41.7164 70.28 42.5564 72.84 43.3564 75.48C44.2364 78.12 45.0764 80.76 45.8764 83.4C46.6764 85.96 47.3964 88.28 48.0364 90.36H48.6364C50.5564 83.64 52.4764 77.16 54.3964 70.92C56.3164 64.6 58.0764 59.32 59.6764 55.08C60.8764 54.44 62.3964 53.92 64.2364 53.52C66.1564 53.04 68.2764 52.8 70.5964 52.8C74.5164 52.8 77.7164 53.4 80.1964 54.6C82.6764 55.72 84.1164 57.36 84.5164 59.52C84.8364 61.12 85.1564 63.6 85.4764 66.96C85.8764 70.24 86.2764 73.96 86.6764 78.12C87.0764 82.28 87.4764 86.68 87.8764 91.32C88.2764 95.96 88.6364 100.44 88.9564 104.76C89.3564 109 89.6764 112.92 89.9164 116.52C90.1564 120.04 90.3164 122.76 90.3964 124.68C89.0364 125.48 87.5964 126.04 86.0764 126.36C84.6364 126.76 82.7564 126.96 80.4364 126.96C77.3964 126.96 74.8364 126.44 72.7564 125.4C70.6764 124.36 69.5564 122.32 69.3964 119.28C68.9164 110.56 68.5964 102.72 68.4364 95.76C68.3564 88.8 68.1964 82.96 67.9564 78.24H67.3564C66.5564 81.36 65.3964 85.28 63.8764 90C62.3564 94.72 60.5164 100.76 58.3564 108.12ZM117.461 82.99C143.971 82.99 133.741 107.08 141.221 114.12C142.431 115.33 144.191 115.77 143.971 117.31C143.641 119.4 140.011 121.16 135.721 121.16C129.891 121.16 125.711 116.87 122.521 116.87C119.441 116.87 116.581 121.16 109.321 121.16C100.081 121.16 93.8114 115.22 96.5614 107.85C98.8714 101.25 108.331 101.47 115.481 99.16C122.961 96.85 121.751 89.15 118.451 87.5C115.151 85.96 115.151 92.01 114.161 94.65C111.521 101.58 93.2614 97.51 102.501 87.83C105.251 85.08 110.201 82.99 117.461 82.99ZM112.401 109.83C112.841 112.91 116.471 113.79 119.111 113.35C120.321 113.13 120.871 111.92 121.091 111.26C121.861 107.3 121.641 104.22 121.201 102.24C120.981 101.25 119.991 101.03 118.561 102.46C116.141 104.88 111.851 106.31 112.401 109.83ZM177.157 108.51C179.577 102.46 191.347 104.55 191.347 110.05C191.347 115.77 184.087 121.16 177.707 121.16H151.417C144.487 121.16 144.047 117.2 145.917 115.11C148.227 112.58 165.717 92.89 165.717 92.89C168.137 90.36 170.227 87.28 166.377 87.28C162.527 87.28 159.447 90.36 157.357 95.64C154.937 101.69 143.167 99.6 143.167 94.1C143.167 88.38 150.427 82.99 156.807 82.99H183.097C190.027 82.99 190.467 86.95 188.597 89.15C186.287 91.68 168.687 111.26 168.687 111.26C166.377 113.79 164.287 116.87 168.137 116.87C171.987 116.87 175.067 113.79 177.157 108.51ZM229.664 103.89C231.314 102.02 232.964 103.23 232.744 105.1L232.524 106.2C230.544 114.78 222.294 121.16 212.504 121.16C201.284 121.16 192.044 112.58 192.044 102.13C192.044 91.57 201.284 82.99 212.504 82.99C219.874 82.99 226.474 85.85 229.114 91.02C232.414 97.62 222.954 106.31 214.704 106.31C212.834 106.31 210.854 106.09 209.424 105.43C212.724 112.8 222.624 111.81 229.664 103.89ZM212.504 87.28C209.644 87.28 208.324 94.65 208.324 99.38C208.324 100.59 208.434 101.58 208.654 102.57C208.764 102.35 208.984 102.24 209.314 102.13C215.914 98.06 215.254 87.28 212.504 87.28Z" fill="#032685"/>
</svg>
